<?xml version="1.0" standalone="no"?>
<!DOCTYPE svg PUBLIC "-//W3C//DTD SVG 20010904//EN"
 "http://www.w3.org/TR/2001/REC-SVG-20010904/DTD/svg10.dtd">
<svg version="1.0" xmlns="http://www.w3.org/2000/svg"
 width="300.000000pt" height="300.000000pt" viewBox="0 0 300.000000 300.000000"
 preserveAspectRatio="xMidYMid meet">
<metadata>
Created by potrace 1.11, written by Peter Selinger 2001-2013
</metadata>
<g transform="translate(0.000000,300.000000) scale(0.100000,-0.100000)"
fill="#000000" stroke="none">
<path d="M1365 2830 c-22 -4 -59 -10 -82 -14 -69 -9 -200 -45 -277 -76 -460
-182 -777 -596 -831 -1085 -13 -117 -7 -350 11 -438 2 -12 7 -35 10 -52 89
-498 511 -924 1018 -1029 134 -28 175 -31 356 -30 189 0 283 14 415 61 301
108 544 343 675 651 30 71 84 267 95 347 3 22 8 118 11 213 l5 172 -601 0
-600 0 0 -235 0 -235 28 0 c15 0 157 0 316 0 l289 1 -6 -71 c-16 -199 -177
-356 -420 -409 -117 -26 -320 -22 -432 8 -129 34 -257 105 -344 190 -45 44
-131 154 -131 167 0 7 -4 14 -8 16 -11 4 -47 83 -72 158 -54 160 -61 428 -17
601 42 161 105 276 211 383 153 156 326 224 582 231 258 7 431 -62 608 -242
l79 -81 66 49 c36 28 102 75 146 106 44 32 82 60 85 63 3 3 20 16 38 29 17 12
32 26 32 30 0 17 -139 166 -219 234 -102 88 -271 183 -406 229 -138 46 -233
61 -415 63 -96 1 -193 -1 -215 -5z"/>
</g>
</svg>
